<svg width="418" height="346" viewBox="0 0 418 346" fill="none" xmlns="http://www.w3.org/2000/svg">
<path d="M243.278 333.878L330.779 254.435C318.989 259.011 305.664 257.144 295.592 249.504L285.447 241.808L268.052 227.603L218.504 270.218L215.278 272.853C210.484 276.767 203.528 276.541 199 272.323L117.825 204.454L117.532 204.196C112.618 199.868 105.211 199.979 100.43 204.454L66.1675 236.021L180.551 333.878C197.755 349.543 223.916 350.087 241.758 335.151L243.278 333.878Z" fill="#1356A5" class="main-logo-1"></path>
<path d="M175.28 12.9472L82.508 99.2303L89.6145 96.9142C101.533 93.0299 114.543 94.3709 125.414 100.604L133.111 105.018L150.506 119.223L199 76.6073L202.496 74.2286C207.351 70.9247 213.765 71.0346 218.504 74.5029L300.733 142.372L301.026 142.629C305.94 146.958 313.347 146.846 318.128 142.372L350.282 111.331L238.007 12.9472L236.846 11.8675C219.944 -3.8587 193.768 -3.96814 176.735 11.6162L175.28 12.9472Z" fill="#1356A5" class="main-logo-2"></path>
<path d="M155.25 131.639L263.835 224.446L221.03 262.349L216.765 265.947C211.737 270.189 204.33 270.026 199.494 265.567L124.929 203.456L118.82 198.434C113.024 193.669 104.671 193.629 98.8294 198.338L95.1587 201.297L61.9505 231.812L0 177.504L71.3332 111.211C73.5015 109.196 75.9363 107.487 78.5696 106.132C96.5384 96.8844 118.342 99.5196 133.58 112.78L155.25 131.639Z" fill="#65839B" class="main-logo-3"></path>
<path d="M262.461 215.753L154.583 122.166L197.629 84.5354L201.578 80.9991C206.64 76.4675 214.365 76.6672 219.184 81.4541L293.239 144.129L299.06 148.87C304.928 153.651 313.369 153.606 319.186 148.764L321.941 146.471L355.211 114.748L418 170.874L346.08 239.774C344.667 241.128 343.143 242.36 341.523 243.458C326.439 253.684 306.383 252.652 292.433 240.933L262.461 215.753Z" fill="#65839B" class="main-logo-4"></path>
<path d="M101.113 205.184C105.519 201.062 112.343 200.959 116.871 204.946L117.164 205.204C117.17 205.21 117.177 205.215 117.184 205.221L198.358 273.09C203.253 277.614 210.743 277.847 215.91 273.627L219.136 270.993C219.142 270.988 219.149 270.982 219.155 270.977L268.068 228.907L284.814 242.582C284.824 242.59 284.833 242.597 284.843 242.604L294.988 250.301C304.092 257.207 315.784 259.52 326.712 256.775L242.619 333.124L241.116 334.384C223.658 348.999 198.058 348.466 181.225 333.139C181.217 333.132 181.209 333.125 181.201 333.118L67.6729 235.992L101.107 205.189L101.113 205.184ZM79.0273 107.021C96.6323 97.9612 117.995 100.543 132.924 113.535L154.593 132.393L154.6 132.398L262.312 224.459L220.385 261.584L216.12 265.183C211.477 269.1 204.637 268.949 200.172 264.831L200.135 264.798L125.569 202.688L125.563 202.684L119.455 197.661C113.293 192.595 104.412 192.553 98.2021 197.56L94.5312 200.519L94.4824 200.561L61.9336 230.468L1.49121 177.481L72.0137 111.943C74.1151 109.99 76.4752 108.335 79.0273 107.021ZM202.245 81.7441C206.912 77.5657 214.036 77.7504 218.479 82.1641C218.498 82.1827 218.518 82.2007 218.538 82.2178L292.593 144.893C292.598 144.897 292.603 144.9 292.607 144.904L298.429 149.646C304.668 154.728 313.641 154.68 319.826 149.532L322.58 147.239C322.597 147.225 322.615 147.21 322.631 147.194L355.232 116.108L416.527 170.898L345.388 239.053C344.016 240.367 342.535 241.564 340.962 242.631C326.249 252.606 306.684 251.599 293.076 240.167L263.104 214.987L156.105 122.162L198.287 85.2881L198.296 85.2803L202.245 81.7441ZM177.41 12.3535C194.059 -2.87871 219.645 -2.77144 236.165 12.5996L237.325 13.6797C237.332 13.6864 237.34 13.6927 237.348 13.6992L348.805 111.366L317.437 141.648C313.031 145.764 306.212 145.864 301.687 141.879L301.395 141.621L301.37 141.601L219.14 73.7314L219.094 73.6963L218.612 73.3574C213.586 69.9739 206.975 69.9705 201.934 73.4014L198.438 75.7803L198.34 75.8564L150.481 117.912L133.743 104.243L133.608 104.15L125.911 99.7373C114.794 93.3632 101.492 91.9919 89.3047 95.9639L86.5098 96.874L175.961 13.6797L175.96 13.6787L177.41 12.3535Z" stroke="black" stroke-width="2" stroke-linejoin="round" class="main-logo-5"></path>
</svg>
