<svg class="img-fluid" id="outputsvg" xmlns="http://www.w3.org/2000/svg" style="transform: matrix(0.781469, 0, 0, 0.781469, 14.5707, 1.07933); transform-origin: 50% 50% 0px; cursor: move; max-height: none; transition: none;" width="1014" height="880" viewBox="0 0 10140 8800"><g id="l2L1PCWM2yLeaSR9aymw0vG" fill="rgb(185,198,210)" style="transform: none;"><g style="transform: none;"></g></g><g id="l5W1vhOtUEKiYv2nPDq1Jh5" fill="rgb(106,133,157)" style="transform: none;"><g style="transform: none;"><path id="pXgRWZ0ek" d="M 4920 6456 c -25 -7 -57 -19 -72 -27 -15 -8 -234 -201 -488 -429 -254 -228 -488 -437 -519 -465 -94 -81 -233 -207 -466 -420 -332 -304 -346 -316 -405 -344 -40 -18 -76 -27 -131 -29 -146 -7 -185 21 -777 572 -203 188 -203 188 -280 115 -68 -65 -271 -251 -765 -702 -76 -69 -138 -128 -138 -131 0 -4 85 -84 188 -179 775 -712 1038 -949 1108 -999 102 -73 233 -133 370 -170 112 -30 132 -32 290 -32 148 -1 181 2 255 22 186 51 335 136 496 284 164 150 285 260 639 583 193 175 390 355 439 399 49 45 96 88 106 96 42 38 548 497 660 600 69 63 216 198 328 299 111 101 201 187 200 191 -2 4 -59 58 -128 120 -69 63 -172 157 -230 211 -256 236 -407 374 -438 397 -31 24 -130 52 -177 51 -11 0 -40 -6 -65 -13 z "></path><path id="pDMNWnJUD" d="M 7001 6109 c -231 -27 -449 -131 -641 -305 -204 -185 -518 -471 -680 -620 -96 -88 -256 -234 -355 -324 -99 -89 -243 -220 -320 -290 -77 -70 -192 -174 -255 -231 -216 -195 -675 -611 -704 -639 -29 -29 -29 -29 50 -103 85 -79 420 -383 618 -560 198 -176 263 -209 377 -188 95 16 83 7 534 416 110 100 297 269 415 376 221 200 410 371 674 611 85 78 177 152 211 170 54 30 68 33 145 33 122 0 161 -22 352 -197 188 -174 678 -627 696 -645 7 -7 17 -13 22 -13 4 0 67 55 140 123 73 67 172 158 220 202 99 90 387 355 591 544 136 126 136 126 90 166 -25 22 -109 99 -186 170 -146 135 -385 353 -509 465 -40 36 -195 178 -344 315 -150 138 -302 274 -340 303 -88 69 -263 155 -382 187 -77 22 -286 49 -335 43 -5 0 -43 -4 -84 -9 z "></path></g></g><g id="l5D5vNbfbMEpdORMyhtpSTR" fill="rgb(68,94,127)" style="transform: none;"><g style="transform: none;"><path id="p1BvAVeLqC" d="M 4918 6456 c -54 -15 -98 -41 -97 -59 0 -9 2 -9 6 1 2 6 9 10 14 6 5 -3 9 0 9 6 0 6 5 8 10 5 6 -3 10 -2 10 4 0 6 7 8 15 5 8 -4 15 -1 15 6 0 7 8 9 19 5 11 -3 22 -1 26 5 8 13 95 13 95 0 0 -5 8 -10 18 -10 9 0 34 -9 55 -20 20 -11 44 -20 52 -20 9 0 19 -10 24 -23 5 -13 15 -28 22 -34 15 -11 69 -26 69 -19 0 14 -151 128 -180 136 -63 16 -134 19 -182 6 z "></path><path id="pFRVLENU8" d="M 4719 6323 c -41 -36 -110 -99 -154 -138 -274 -247 -323 -291 -349 -314 -16 -14 -102 -91 -191 -171 -89 -80 -199 -179 -245 -220 -47 -41 -107 -95 -135 -120 -27 -24 -79 -72 -115 -105 -91 -84 -259 -236 -284 -258 -11 -10 -46 -42 -76 -71 -147 -140 -233 -187 -345 -187 -63 0 -131 22 -187 63 -25 17 -32 18 -39 7 -11 -17 7 -32 81 -68 47 -22 68 -26 144 -26 60 0 91 4 93 12 3 7 11 9 19 6 8 -3 14 0 14 6 0 6 6 8 13 5 16 -6 97 51 97 68 0 6 2 9 5 6 3 -3 39 27 79 66 41 39 107 100 147 136 40 36 89 81 109 100 21 19 53 49 73 65 19 17 66 59 104 95 38 36 103 95 144 131 41 37 86 77 100 90 15 13 57 51 95 84 37 33 77 69 90 80 12 11 55 49 95 85 40 36 85 76 99 90 15 14 60 54 100 90 41 36 86 76 101 90 14 14 57 52 94 85 37 33 80 71 95 85 16 14 54 48 86 75 106 91 129 113 123 119 -3 3 -39 -24 -80 -61 z "></path><path id="pAqXtyCnh" d="M 7001 6108 c -114 -12 -225 -46 -348 -104 -82 -39 -113 -59 -112 -72 0 -10 3 -12 6 -4 2 6 9 10 13 7 5 -3 18 3 30 15 11 11 21 19 23 19 7 -5 47 14 47 22 0 6 5 7 10 4 6 -3 10 -2 10 4 0 6 7 8 15 5 8 -4 15 -1 15 6 0 6 5 8 10 5 6 -3 10 -2 10 4 0 6 7 8 15 5 8 -4 15 -1 15 6 0 6 4 9 9 6 5 -4 22 -1 38 5 34 15 53 20 73 21 8 0 20 5 27 10 7 5 17 7 23 3 6 -4 17 -1 25 5 9 8 29 9 54 5 24 -4 41 -2 46 4 9 15 125 14 125 0 0 -8 17 -10 50 -7 27 3 51 1 52 -3 2 -5 23 -9 48 -11 25 -2 47 -6 50 -9 3 -3 37 -15 75 -27 117 -36 325 -153 385 -217 23 -24 60 -34 60 -16 0 14 -77 80 -152 128 -155 100 -348 169 -503 179 -44 2 -100 6 -125 8 -25 1 -78 -1 -119 -6 z "></path><path id="pjptrPbtk" d="M 5767 5846 c -6 -16 32 -56 54 -56 16 0 69 -50 69 -65 0 -5 9 -18 20 -30 21 -22 21 -22 -22 -60 -24 -21 -72 -66 -108 -99 -36 -34 -104 -95 -150 -136 -47 -41 -146 -131 -220 -200 -75 -69 -199 -181 -275 -250 -77 -69 -176 -159 -220 -200 -44 -41 -125 -114 -180 -161 -55 -48 -111 -97 -125 -110 -14 -13 -129 -118 -255 -234 -127 -115 -266 -244 -310 -285 -44 -42 -150 -139 -235 -215 -85 -77 -193 -175 -240 -219 -151 -142 -304 -228 -490 -277 -111 -30 -341 -32 -468 -5 -242 51 -385 131 -619 344 -76 68 -203 184 -283 256 -79 72 -181 165 -225 206 -73 68 -287 265 -500 460 -44 40 -81 76 -83 79 -3 9 117 126 258 251 92 81 174 156 263 240 110 103 119 111 207 190 46 41 113 103 149 137 41 39 70 58 76 52 5 -5 17 -9 27 -9 10 0 21 -8 25 -17 9 -28 65 -83 83 -83 18 0 70 -50 70 -66 0 -15 44 -54 61 -54 17 0 103 -86 112 -112 4 -10 15 -18 25 -18 19 0 75 -54 85 -82 4 -10 15 -18 25 -18 19 0 62 -39 62 -57 0 -13 33 -43 48 -43 26 0 7 23 -106 126 -64 59 -142 130 -172 158 -355 333 -337 319 -362 294 -13 -13 -70 -65 -128 -117 -58 -52 -130 -118 -160 -146 -30 -29 -86 -81 -125 -116 -38 -35 -90 -82 -115 -105 -25 -23 -133 -121 -240 -218 -107 -98 -194 -179 -193 -182 3 -5 336 -312 443 -408 36 -32 90 -82 120 -110 30 -29 84 -79 120 -112 36 -32 111 -100 165 -150 55 -50 163 -148 240 -219 77 -70 172 -150 210 -178 100 -71 234 -132 371 -169 111 -30 131 -32 289 -32 148 -1 181 2 255 22 163 45 335 137 446 239 23 21 81 74 129 118 49 44 96 87 105 95 9 8 65 60 126 115 60 55 134 123 164 151 30 28 109 100 175 160 66 59 138 124 160 145 22 20 144 130 270 245 127 115 240 218 251 229 11 11 56 52 99 90 92 81 236 211 414 375 69 63 217 198 329 299 111 101 202 186 202 189 0 3 -26 28 -57 57 -123 110 -131 116 -136 101 z "></path><path id="pf8ZPD02D" d="M 6149 5613 c -40 -37 -108 -99 -149 -138 -41 -39 -120 -111 -175 -160 -55 -49 -136 -123 -181 -164 -44 -42 -118 -110 -165 -152 -295 -267 -409 -373 -409 -382 0 -5 15 4 33 21 17 17 57 52 87 79 30 26 73 66 96 88 23 22 74 69 115 105 40 36 98 88 129 116 30 28 86 80 125 115 38 35 88 82 111 104 23 22 57 54 77 70 40 34 179 161 274 250 36 33 71 64 79 68 12 7 39 47 31 47 -2 0 -37 -30 -78 -67 z "></path><path id="pjDq8lGod" d="M 8947 4826 c -6 -16 32 -56 54 -56 18 0 89 -71 89 -88 0 -7 8 -12 18 -12 10 0 36 -18 57 -41 40 -41 40 -41 4 -72 -20 -18 -159 -144 -308 -282 -149 -137 -310 -285 -357 -327 -47 -42 -146 -134 -219 -203 -74 -70 -141 -125 -149 -123 -14 3 -132 110 -584 533 -118 110 -239 219 -270 242 -109 82 -237 98 -345 45 -64 -32 -106 -66 -334 -273 -130 -118 -205 -186 -833 -754 -658 -596 -611 -560 -734 -553 -39 2 -87 12 -107 21 -37 18 -217 169 -389 327 -57 52 -134 122 -170 155 -253 229 -330 302 -330 313 0 6 3 12 8 12 4 0 23 15 43 33 47 42 189 170 253 227 28 25 67 61 87 80 20 19 68 62 105 95 38 33 88 78 111 101 24 23 45 39 48 36 3 -3 5 3 5 12 0 21 -24 3 -130 -98 -55 -52 -241 -221 -424 -386 -146 -131 -140 -109 -51 -192 73 -68 164 -150 395 -358 46 -41 92 -83 104 -93 11 -10 59 -53 105 -95 123 -113 193 -166 242 -187 60 -25 168 -22 225 5 41 20 148 111 359 306 55 50 197 178 315 285 186 166 411 371 446 404 6 5 46 42 90 80 43 39 110 99 149 135 306 282 342 313 409 347 72 37 171 42 248 14 77 -29 91 -41 448 -376 47 -44 113 -105 146 -135 33 -30 114 -105 179 -166 66 -61 135 -124 152 -139 33 -27 33 -27 60 -5 16 12 82 72 148 134 66 62 149 139 185 171 36 32 92 84 125 115 98 91 197 183 250 231 156 142 196 179 257 238 37 35 73 68 80 73 9 5 -17 36 -87 103 -140 133 -172 158 -178 141 z "></path></g></g><g id="l4PqbqEt7QiyRpVryJ8LrOq" fill="rgb(15,81,161)" style="transform: none;"><g style="transform: none;"><path id="p1EJS9KFC1" d="M 4875 8004 c -144 -29 -311 -96 -415 -167 -57 -40 -443 -383 -805 -717 -126 -116 -592 -538 -1069 -969 -77 -69 -176 -160 -220 -201 -45 -41 -141 -129 -214 -194 -72 -66 -132 -122 -132 -125 0 -10 499 -470 601 -553 67 -55 124 -78 195 -78 120 0 155 20 349 195 44 40 127 115 185 166 247 220 890 797 950 853 36 34 126 116 200 182 74 67 171 154 215 194 98 89 178 130 253 130 123 0 203 -44 384 -210 57 -52 182 -167 278 -254 96 -87 241 -219 322 -292 80 -74 149 -134 153 -134 3 0 72 60 153 133 81 73 165 147 187 164 91 70 217 126 355 158 105 24 344 23 458 -3 82 -19 82 -19 82 2 0 15 -39 57 -121 131 -66 61 -160 146 -208 190 -365 333 -546 498 -606 554 -39 36 -93 86 -120 111 -148 133 -277 252 -335 306 -253 238 -345 302 -545 377 -168 64 -368 83 -530 51 z "></path><path id="p12Z7QNnY4" d="M 7010 4181 c -85 -18 -67 -3 -701 -582 -178 -162 -351 -320 -384 -350 -33 -30 -157 -142 -275 -249 -436 -396 -456 -411 -581 -418 -115 -7 -197 34 -352 175 -95 87 -312 289 -407 379 -47 44 -107 101 -135 126 -27 25 -104 95 -170 156 -120 112 -120 112 -195 39 -283 -275 -397 -353 -599 -408 -147 -40 -407 -36 -571 8 -124 34 -124 35 0 -83 63 -60 144 -136 180 -169 36 -33 112 -105 170 -160 58 -55 199 -188 315 -295 115 -107 255 -238 310 -290 55 -52 188 -176 295 -275 107 -99 245 -227 305 -285 247 -238 531 -350 849 -337 250 11 468 83 651 216 56 41 278 239 465 415 72 68 222 204 570 520 36 33 97 89 135 125 39 37 167 155 285 263 198 180 346 315 604 552 54 50 107 98 116 106 77 68 101 93 98 104 -2 7 -28 35 -59 62 -78 69 -372 337 -507 462 -126 117 -174 154 -226 176 -45 19 -139 27 -186 17 z "></path></g></g><g id="lCvIe4T9Q9J5NO4DwvTxts" fill="rgb(17,43,90)" style="transform: none;"><g style="transform: none;"><path id="p14qP85KS" d="M 4882 8004 c -131 -23 -342 -104 -342 -130 0 -9 14 -7 53 10 160 70 344 109 498 104 54 -2 99 -6 99 -10 0 -5 11 -8 24 -8 87 0 384 -129 473 -205 23 -19 44 -35 47 -35 4 0 20 -16 37 -35 17 -19 36 -35 41 -35 6 0 39 -31 75 -70 36 -38 70 -70 76 -70 7 0 25 -16 40 -35 15 -19 32 -35 37 -35 6 0 42 -34 81 -75 39 -41 76 -75 82 -75 5 0 25 -18 44 -40 19 -22 39 -40 44 -40 5 0 27 -20 50 -45 23 -25 48 -45 56 -45 8 0 12 -4 9 -9 -5 -8 84 -91 98 -91 3 0 42 -38 87 -85 45 -47 87 -85 93 -85 6 0 24 -16 39 -35 15 -19 32 -35 37 -35 5 0 28 -20 51 -45 23 -25 45 -45 48 -45 4 0 56 -47 116 -105 60 -58 115 -105 122 -105 6 0 31 -22 54 -50 23 -27 46 -50 51 -50 5 0 21 -13 35 -30 23 -28 53 -40 53 -22 0 10 -125 128 -400 378 -196 178 -597 544 -705 644 -205 190 -473 429 -514 458 -213 154 -542 232 -789 186 z "></path><path id="pxFDmpg1V" d="M 3624 7092 c -39 -37 -136 -127 -217 -201 -81 -74 -147 -139 -147 -144 0 -4 25 13 55 38 30 26 55 51 55 56 0 5 5 9 11 9 6 0 58 44 116 98 58 53 128 118 156 143 27 25 48 51 46 57 -2 6 -36 -19 -75 -56 z "></path><path id="p1B5HqxTUz" d="M 4868 6715 c -53 -20 -121 -68 -209 -150 -42 -38 -134 -122 -204 -185 -70 -63 -167 -151 -215 -195 -47 -44 -129 -118 -181 -164 -324 -288 -467 -420 -453 -421 6 0 129 107 274 238 145 130 296 266 336 302 170 151 243 216 304 274 283 267 352 312 468 303 37 -3 78 -8 92 -11 14 -3 9 0 -10 8 -44 18 -154 19 -202 1 z "></path><path id="pJkac9S9v" d="M 2765 6312 c -28 -26 -113 -103 -190 -172 -189 -170 -295 -271 -295 -283 0 -6 12 1 28 15 15 14 59 55 98 90 39 34 131 118 205 184 74 67 152 137 173 156 21 19 37 40 35 46 -2 6 -27 -10 -54 -36 z "></path><path id="pGrwrhUPH" d="M 6845 6304 c -120 -22 -211 -51 -299 -97 -97 -50 -145 -88 -308 -239 -70 -65 -133 -118 -141 -118 -7 0 -18 4 -25 10 -7 5 -3 0 8 -12 15 -17 24 -20 34 -13 8 6 84 74 170 152 163 149 245 205 367 252 128 49 220 65 374 66 88 0 123 2 95 7 -72 11 -189 7 -275 -8 z "></path><path id="pzRTp52rS" d="M 3373 5407 c -33 -28 -96 -83 -138 -122 -42 -38 -118 -107 -168 -152 -128 -117 -224 -148 -337 -108 -24 8 -45 13 -47 11 -2 -2 19 -12 48 -21 75 -25 172 -17 238 21 46 27 177 139 356 304 38 36 86 78 105 93 19 15 28 27 20 27 -8 0 -43 -24 -77 -53 z "></path><path id="pjjTnQzi0" d="M 7014 4181 c -57 -10 -120 -50 -210 -134 -44 -40 -100 -91 -125 -112 -51 -43 -351 -318 -436 -399 -29 -27 -53 -54 -53 -59 0 -10 161 126 210 178 19 21 62 60 95 88 33 27 106 94 163 147 56 54 102 95 102 92 0 -3 28 22 63 55 66 64 150 113 191 113 14 0 28 5 31 10 3 6 17 10 31 10 13 0 24 -4 24 -10 0 -5 8 -10 19 -10 28 0 91 -28 141 -64 25 -18 53 -35 63 -39 10 -4 16 -11 13 -16 -6 -9 134 -141 148 -141 4 0 34 -29 67 -65 34 -36 66 -65 73 -65 6 0 24 -16 39 -35 15 -19 32 -35 37 -35 5 0 34 -27 66 -60 31 -33 61 -60 66 -60 5 0 21 -13 35 -30 13 -16 30 -30 37 -30 7 0 23 -14 35 -31 23 -32 23 -32 -40 -88 -35 -31 -100 -90 -145 -131 -44 -41 -104 -97 -133 -123 -29 -27 -51 -51 -48 -54 3 -3 72 55 152 128 81 74 174 158 208 188 34 30 62 58 62 62 0 4 -30 34 -66 66 -71 62 -183 164 -422 383 -201 184 -255 229 -302 250 -48 21 -135 30 -191 21 z "></path><path id="pRzIPQsiU" d="M 3559 3227 c -94 -86 -259 -163 -416 -193 -155 -29 -411 -13 -551 36 -35 12 -66 20 -68 17 -7 -7 65 -60 84 -63 10 -1 58 -9 108 -18 68 -12 130 -15 250 -12 198 5 281 23 414 91 100 51 230 149 230 174 0 15 1 15 -51 -32 z "></path><path id="p144KUHa8S" d="M 4533 2905 c -9 -10 -2 -22 31 -54 23 -22 45 -41 49 -41 4 0 23 -18 43 -40 20 -22 39 -40 43 -40 4 0 31 -22 60 -50 29 -27 60 -50 67 -50 8 0 14 -5 14 -10 0 -6 28 -24 63 -40 111 -53 241 -39 341 38 67 50 70 70 5 27 -76 -50 -138 -68 -218 -63 -112 6 -172 43 -381 238 -82 75 -108 94 -117 85 z "></path><path id="pAGe5J4G7" d="M 6589 2195 c -412 -379 -576 -534 -564 -535 6 0 60 46 121 103 60 56 184 170 274 252 287 263 299 275 286 275 -7 0 -60 -43 -117 -95 z "></path><path id="p1EUphXI2v" d="M 5925 1584 c -279 -261 -460 -357 -758 -405 -85 -13 -288 -7 -366 11 -24 6 -46 9 -48 6 -11 -10 113 -29 228 -33 236 -10 490 58 684 182 90 57 370 305 344 305 -8 -1 -45 -30 -84 -66 z "></path></g></g></svg>