<svg width="418" height="346" viewBox="0 0 418 346" fill="none" xmlns="http://www.w3.org/2000/svg">
<path d="M243.278 333.878L330.779 254.435C318.989 259.011 305.664 257.144 295.592 249.504L285.447 241.808L268.052 227.603L218.504 270.218L215.278 272.853C210.484 276.767 203.528 276.541 199 272.323L117.825 204.454L117.532 204.196C112.618 199.868 105.211 199.979 100.43 204.454L66.1675 236.021L180.551 333.878C197.755 349.543 223.916 350.087 241.758 335.151L243.278 333.878Z" fill="#1356A5"/>
<path d="M175.28 12.9472L82.508 99.2303L89.6145 96.9142C101.533 93.0299 114.543 94.3709 125.414 100.604L133.111 105.018L150.506 119.223L199 76.6073L202.496 74.2286C207.351 70.9247 213.765 71.0346 218.504 74.5029L300.733 142.372L301.026 142.629C305.94 146.958 313.347 146.846 318.128 142.372L350.282 111.331L238.007 12.9472L236.846 11.8675C219.944 -3.8587 193.768 -3.96814 176.735 11.6162L175.28 12.9472Z" fill="#1356A5"/>
<path d="M155.25 131.639L263.835 224.446L221.03 262.349L216.765 265.947C211.737 270.189 204.33 270.026 199.494 265.567L124.929 203.456L118.82 198.434C113.024 193.669 104.671 193.629 98.8294 198.338L95.1587 201.297L61.9505 231.812L0 177.504L71.3332 111.211C73.5015 109.196 75.9363 107.487 78.5696 106.132C96.5384 96.8844 118.342 99.5196 133.58 112.78L155.25 131.639Z" fill="#65839B"/>
<path d="M262.461 215.753L154.583 122.166L197.629 84.5354L201.578 80.9991C206.64 76.4675 214.365 76.6672 219.184 81.4541L293.239 144.129L299.06 148.87C304.928 153.651 313.369 153.606 319.186 148.764L321.941 146.471L355.211 114.748L418 170.874L346.08 239.774C344.667 241.128 343.143 242.36 341.523 243.458C326.439 253.684 306.383 252.652 292.433 240.933L262.461 215.753Z" fill="#65839B"/>
</svg>